<svg width="403" height="183" viewBox="0 0 403 183" fill="none" xmlns="http://www.w3.org/2000/svg">
<g clip-path="url(#clip0_749_319)">
<path d="M262.3 42.52H253.01C251.31 42.52 249.99 44.01 250.2 45.71L254.31 78.67C254.73 82.05 252.09 85.04 248.68 85.04H219.04C215.63 85.04 212.99 82.05 213.41 78.67L217.51 45.78C217.72 44.09 216.4 42.59 214.7 42.59H206.93C202.23 42.59 198.43 38.78 198.43 34.09V8.51C198.43 3.81 202.24 0 206.93 0L264.9 0C268.22 0 270.83 2.83 270.55 6.14L267.95 37.32C267.71 40.26 265.25 42.52 262.3 42.52Z" fill="#006146"/>
<path d="M340.519 3.82C336.859 4.05 333.959 7.04 333.859 10.75L333.509 26.51L322.829 15.83C321.529 14.53 319.729 13.79 317.889 13.79C316.049 13.79 314.199 14.55 312.869 15.88L302.709 26.03C299.949 28.79 299.939 33.26 302.669 36L324.319 57.64L326.939 78.67C327.359 82.06 324.719 85.04 321.319 85.04H289.899C286.489 85.04 283.859 82.06 284.279 78.67L288.379 45.78C288.589 44.09 287.269 42.59 285.559 42.59H277.229C273.909 42.59 271.299 39.76 271.579 36.45L274.179 5.2C274.419 2.26 276.879 0 279.829 0L333.419 0C336.389 0 338.999 1.52 340.519 3.82Z" fill="#006146"/>
<path d="M124.649 6.6L112.369 80.3C111.909 83.03 109.549 85.04 106.779 85.04H70.4391C66.9391 85.04 64.2691 81.89 64.8491 78.44L66.8891 66.18C67.3891 63.17 63.4291 61.6 61.7291 64.14L49.4791 82.51C48.4291 84.09 46.6591 85.04 44.7591 85.04H20.8691C16.1691 85.04 12.3691 81.23 12.3691 76.54L12.3691 8.51C12.3691 3.81 16.1791 0 20.8791 0L36.6791 0C40.1791 0 42.8491 3.15 42.2691 6.6L37.5691 34.81C37.0691 37.83 41.0291 39.39 42.7191 36.85L65.6091 2.53C66.6591 0.95 68.4291 0 70.3291 0L79.1991 0C82.6991 0 85.3691 3.15 84.7891 6.6L80.0891 34.81C79.5891 37.83 83.5491 39.39 85.2391 36.85L108.129 2.53C109.179 0.95 110.949 0 112.849 0L119.059 0C122.559 0 125.229 3.15 124.649 6.6Z" fill="#006146"/>
<path d="M186.379 0L135.919 0C133.149 0 130.779 2.01 130.329 4.74L118.039 78.44C117.459 81.9 120.129 85.04 123.629 85.04H131.029C132.929 85.04 134.699 84.1 135.749 82.52L157.449 49.97C159.149 47.43 163.109 48.99 162.609 52.01L158.209 78.44C157.629 81.9 160.299 85.04 163.799 85.04H186.379C191.079 85.04 194.889 81.24 194.889 76.54V8.51C194.889 3.81 191.079 0 186.379 0ZM172.799 31.48L167.999 38.66C165.869 41.87 160.869 39.9 161.499 36.09L162.919 27.57C163.479 24.23 166.929 22.21 170.119 23.36C172.379 24.17 173.709 26.29 173.709 28.48C173.709 29.51 173.419 30.54 172.799 31.48Z" fill="#006146"/>
<path d="M142.57 125.651C141.71 125.301 141.38 124.231 141.93 123.491C144.23 120.411 145.55 116.551 145.42 112.371C145.13 102.731 136.93 95.2012 127.29 95.2012H90.75C86.05 95.2012 82.25 99.0112 82.25 103.711V171.741C82.25 176.441 86.05 180.241 90.75 180.241H131.85C147.51 180.241 160.2 167.551 160.2 151.901C160.2 140.041 152.92 129.881 142.57 125.651ZM114.03 149.251L112.76 156.901C112.26 159.911 109.16 161.721 106.29 160.691C104.26 159.961 103.06 158.051 103.06 156.091C103.06 155.171 103.33 154.231 103.88 153.401L108.19 146.941C110.11 144.061 114.6 145.831 114.03 149.251ZM126.21 122.721L121.9 129.181C119.98 132.061 115.49 130.291 116.06 126.871L117.33 119.221C117.83 116.211 120.93 114.401 123.8 115.431C125.83 116.161 127.03 118.071 127.03 120.031C127.03 120.951 126.76 121.891 126.21 122.721Z" fill="#006146"/>
<path d="M402.92 104.311V129.821C402.92 134.521 399.11 138.331 394.41 138.331H386.64C384.93 138.331 383.61 139.821 383.83 141.511L387.93 174.481C388.36 177.861 385.72 180.851 382.31 180.851H352.67C349.26 180.851 346.62 177.861 347.04 174.481L351.14 141.581C351.35 139.891 350.03 138.401 348.33 138.401H340.56C335.87 138.401 332.06 134.591 332.06 129.891V104.311C332.06 99.6105 335.87 95.8105 340.56 95.8105H362.49L370.78 104.101C372.09 105.421 373.85 106.151 375.72 106.151C377.59 106.151 379.34 105.431 380.75 104.071L389 95.8105H394.41C399.11 95.8105 402.92 99.6105 402.92 104.311Z" fill="#006146"/>
<path d="M206.76 93.8809C182.21 93.8809 162.31 110.601 162.31 138.331C162.31 164.541 182.21 182.781 206.76 182.781C231.31 182.781 251.21 164.541 251.21 138.331C251.21 110.601 231.31 93.8809 206.76 93.8809ZM213.86 134.151L211.29 138.671C210.88 139.381 210.6 140.161 210.47 140.961L209.58 146.071C209 149.431 205.46 151.391 202.3 150.111C200.21 149.251 198.97 147.251 198.97 145.151C198.97 144.261 199.2 143.351 199.68 142.511L202.25 137.991C202.65 137.281 202.93 136.511 203.07 135.701L203.95 130.601C204.53 127.231 208.07 125.271 211.24 126.561C213.33 127.421 214.56 129.421 214.56 131.511C214.56 132.411 214.34 133.321 213.86 134.151Z" fill="#006146"/>
<path d="M326.74 104.311V172.341C326.74 177.041 322.93 180.841 318.24 180.841H309.97C306.47 180.841 303.8 177.691 304.38 174.241L305.09 169.981C305.59 166.961 301.63 165.401 299.94 167.941L293.02 178.321C291.97 179.901 290.2 180.841 288.3 180.841H264.39C259.69 180.841 255.89 177.031 255.89 172.341V104.311C255.89 99.6105 259.7 95.8105 264.39 95.8105H275.11C278.61 95.8105 281.28 98.9606 280.7 102.411L275.27 135.021C274.77 138.031 278.73 139.601 280.42 137.061L306.24 98.3306C307.29 96.7506 309.06 95.8105 310.96 95.8105H318.24C322.94 95.8105 326.74 99.6205 326.74 104.311Z" fill="#006146"/>
<path d="M68.4194 95.2012H17.9594C15.1894 95.2012 12.8194 97.2112 12.3694 99.9412L0.0794419 173.641C-0.500558 177.101 2.16944 180.241 5.66944 180.241H13.0694C14.9694 180.241 16.7394 179.301 17.7894 177.721L39.4894 145.171C41.1894 142.631 45.1494 144.191 44.6494 147.211L40.2494 173.641C39.6694 177.101 42.3394 180.241 45.8394 180.241H68.4194C73.1194 180.241 76.9294 176.441 76.9294 171.741V103.711C76.9294 99.0112 73.1194 95.2012 68.4194 95.2012ZM54.8394 126.681L50.0394 133.861C47.9094 137.071 42.9194 135.101 43.5394 131.291L44.9694 122.771C45.5294 119.431 48.9694 117.411 52.1594 118.561C54.4194 119.371 55.7494 121.491 55.7494 123.681C55.7494 124.711 55.4594 125.741 54.8394 126.681Z" fill="#006146"/>
<path d="M397.63 51.8004L397.31 65.8404C397.29 66.6004 396.66 67.2304 395.9 67.2504L367.99 67.8804C367.59 67.8804 367.37 68.3904 367.65 68.6704L386.94 87.9604C387.46 88.4804 387.44 89.3504 386.89 89.9004L380.99 95.8104L376.74 100.06C376.45 100.34 376.09 100.48 375.72 100.48C375.38 100.48 375.05 100.36 374.79 100.1L306.68 31.9904C306.15 31.4604 306.17 30.5904 306.72 30.0404L316.88 19.8904C317.16 19.6104 317.53 19.4604 317.89 19.4604C318.23 19.4604 318.57 19.5904 318.82 19.8404L338.11 39.1304C338.19 39.2204 338.3 39.2604 338.41 39.2604C338.65 39.2604 338.89 39.0704 338.9 38.7904L339.53 10.8804C339.55 10.1204 340.18 9.49039 340.94 9.47039L341.93 9.45039L354.98 9.15039H355.01C355.76 9.15039 356.34 9.75039 356.32 10.5004L355.69 38.4004C355.68 38.6804 355.9 38.8504 356.13 38.8504C356.25 38.8504 356.37 38.8104 356.46 38.7104L376.65 18.5304C376.93 18.2504 377.3 18.1004 377.66 18.1004C378 18.1004 378.34 18.2304 378.59 18.4904L388.29 28.1904C388.82 28.7104 388.8 29.5904 388.25 30.1304L368.07 50.3204C367.78 50.6104 367.96 51.0904 368.36 51.0904H368.38L396.28 50.4604H396.31C397.06 50.4604 397.64 51.0504 397.63 51.8004Z" fill="#006146"/>
<path d="M397.63 51.8004L397.31 65.8404C397.29 66.6004 396.66 67.2304 395.9 67.2504L367.99 67.8804C367.59 67.8804 367.37 68.3904 367.65 68.6704L386.94 87.9604C387.46 88.4804 387.44 89.3504 386.89 89.9004L380.99 95.8104L376.74 100.06C376.45 100.34 376.09 100.48 375.72 100.48C375.38 100.48 375.05 100.36 374.79 100.1L306.68 31.9904C306.15 31.4604 306.17 30.5904 306.72 30.0404L316.88 19.8904C317.16 19.6104 317.53 19.4604 317.89 19.4604C318.23 19.4604 318.57 19.5904 318.82 19.8404L338.11 39.1304C338.19 39.2204 338.3 39.2604 338.41 39.2604C338.65 39.2604 338.89 39.0704 338.9 38.7904L339.53 10.8804C339.55 10.1204 340.18 9.49039 340.94 9.47039L341.93 9.45039L354.98 9.15039H355.01C355.76 9.15039 356.34 9.75039 356.32 10.5004L355.69 38.4004C355.68 38.6804 355.9 38.8504 356.13 38.8504C356.25 38.8504 356.37 38.8104 356.46 38.7104L376.65 18.5304C376.93 18.2504 377.3 18.1004 377.66 18.1004C378 18.1004 378.34 18.2304 378.59 18.4904L388.29 28.1904C388.82 28.7104 388.8 29.5904 388.25 30.1304L368.07 50.3204C367.78 50.6104 367.96 51.0904 368.36 51.0904H368.38L396.28 50.4604H396.31C397.06 50.4604 397.64 51.0504 397.63 51.8004Z" fill="#006146"/>
</g>
<defs>
<clipPath id="clip0_749_319">
<rect width="402.92" height="182.78" fill="white"/>
</clipPath>
</defs>
</svg>
