<svg width="415" height="415" viewBox="0 0 415 415" fill="none" xmlns="http://www.w3.org/2000/svg">
<g clip-path="url(#clip0_750_423)">
<path d="M215.541 129.501L208.972 136.07C207.77 137.272 207.89 139.259 209.24 140.313L235.453 160.713C238.14 162.806 238.387 166.787 235.976 169.198L215.017 190.157C212.606 192.568 208.625 192.32 206.532 189.633L186.174 163.477C185.128 162.134 183.134 162.007 181.932 163.209L176.438 168.703C173.114 172.026 167.733 172.019 164.417 168.703L146.329 150.615C143.006 147.292 143.006 141.904 146.322 138.587L187.313 97.5963C189.661 95.2487 193.507 95.4042 195.65 97.9428L215.859 121.829C217.768 124.077 217.627 127.415 215.541 129.501Z" fill="#006146"/>
<path d="M243.485 46.8254C241.06 49.576 241.123 53.7409 243.676 56.4349L254.573 67.8264L239.469 67.8264C237.63 67.8264 235.834 68.5759 234.533 69.877C233.232 71.1781 232.461 73.0237 232.461 74.9046L232.454 89.2659C232.454 93.1691 235.608 96.337 239.476 96.344L270.087 96.337L286.81 109.355C289.504 111.455 289.744 115.429 287.34 117.833L265.123 140.05C262.711 142.462 258.745 142.214 256.644 139.52L236.287 113.364C235.24 112.021 233.246 111.893 232.037 113.102L226.147 118.993C223.799 121.34 219.953 121.185 217.81 118.646L197.551 94.7106C195.642 92.462 195.784 89.1245 197.87 87.0385L235.764 49.1447C237.864 47.0445 240.784 46.2738 243.485 46.8254Z" fill="#006146"/>
<path d="M92.8079 201.435L136.238 262.232C137.844 264.488 137.596 267.578 135.637 269.537L109.941 295.233C107.466 297.708 103.351 297.368 101.321 294.519L94.0949 284.407C92.32 281.925 88.4097 283.615 89.0037 286.613L93.3312 308.265C93.706 310.124 93.1261 312.048 91.7826 313.391L74.8898 330.284C71.5664 333.607 66.1854 333.6 62.869 330.284L14.7645 282.18C11.4411 278.856 11.4411 273.468 14.7645 270.145L25.9368 258.972C28.4117 256.497 32.5271 256.837 34.5565 259.687L51.1805 282.957C52.9625 285.446 56.8657 283.749 56.2646 280.758L48.1824 240.305C47.8076 238.445 48.3875 236.522 49.731 235.178L56.003 228.906C58.4779 226.431 62.5932 226.771 64.6226 229.62L81.2467 252.891C83.0286 255.38 86.9319 253.683 86.3308 250.692L78.2486 210.239C77.8738 208.379 78.4537 206.456 79.7972 205.112L84.1883 200.721C86.6632 198.246 90.7785 198.585 92.8079 201.435Z" fill="#006146"/>
<path d="M131.791 153.118L96.1104 188.799C94.1517 190.757 93.8971 193.855 95.5093 196.103L138.933 256.907C140.969 259.764 145.078 260.096 147.552 257.622L152.785 252.389C154.128 251.045 154.715 249.129 154.341 247.269L146.669 208.909C146.075 205.911 149.978 204.214 151.76 206.703L167.337 228.503C169.374 231.36 173.482 231.692 175.957 229.217L191.923 213.251C195.247 209.927 195.254 204.546 191.93 201.223L143.826 153.118C140.503 149.795 135.114 149.795 131.791 153.118ZM144.448 184.98L146.131 193.452C146.895 197.228 141.966 199.37 139.718 196.23L134.697 189.202C132.731 186.444 133.743 182.576 136.811 181.134C138.982 180.108 141.422 180.667 142.97 182.216C143.699 182.944 144.222 183.877 144.448 184.98Z" fill="#006146"/>
<path d="M189.661 272.945C188.805 273.306 187.815 272.782 187.681 271.87C187.129 268.066 185.333 264.403 182.286 261.54C175.264 254.928 164.141 255.402 157.325 262.218L131.487 288.056C128.164 291.379 128.171 296.76 131.494 300.084L179.599 348.188C182.922 351.512 188.296 351.512 191.619 348.188L220.681 319.126C231.755 308.053 231.755 290.107 220.688 279.04C212.302 270.654 199.97 268.618 189.661 272.945ZM186.168 309.814L190.679 316.121C192.454 318.603 191.542 322.075 188.784 323.376C186.832 324.295 184.633 323.793 183.247 322.407C182.597 321.757 182.123 320.901 181.925 319.925L180.405 312.31C179.726 308.916 184.152 306.992 186.168 309.814ZM176.021 282.442L177.541 290.057C178.22 293.451 173.793 295.375 171.778 292.553L167.267 286.246C165.492 283.764 166.404 280.292 169.162 278.991C171.113 278.072 173.312 278.574 174.698 279.96C175.349 280.61 175.823 281.466 176.021 282.442Z" fill="#006146"/>
<path d="M358.666 73.7603L376.704 91.7986C380.028 95.122 380.028 100.51 376.704 103.834L371.21 109.328C370.001 110.537 370.121 112.524 371.471 113.563L397.684 133.978C400.378 136.063 400.626 140.044 398.214 142.456L377.256 163.414C374.844 165.826 370.863 165.578 368.77 162.891L348.406 136.728C347.359 135.385 345.372 135.264 344.17 136.467L338.676 141.961C335.36 145.277 329.971 145.277 326.648 141.954L308.56 123.866C305.237 120.542 305.244 115.161 308.56 111.845L324.067 96.3382L335.791 96.3382C337.651 96.3453 339.411 95.617 340.734 94.2947C342.056 92.9724 342.784 91.2258 342.82 89.2671L342.812 77.5928L346.638 73.7674C349.961 70.444 355.342 70.4369 358.666 73.7603Z" fill="#006146"/>
<path d="M212.585 205.091C195.226 222.45 192.977 248.344 212.585 267.952C231.118 286.486 258.088 285.312 275.447 267.952C292.806 250.593 293.98 223.624 275.447 205.091C255.839 185.483 229.945 187.731 212.585 205.091ZM246.081 228.545L247.46 233.559C247.672 234.351 248.025 235.1 248.499 235.758L251.483 240C253.449 242.786 252.332 246.676 249.192 248.005C247.106 248.875 244.815 248.337 243.33 246.852C242.701 246.223 242.22 245.417 241.965 244.484L240.587 239.47C240.367 238.685 240.021 237.943 239.547 237.271L236.563 233.043C234.59 230.249 235.708 226.36 238.861 225.031C240.947 224.161 243.231 224.706 244.709 226.184C245.345 226.82 245.833 227.619 246.081 228.545Z" fill="#006146"/>
<path d="M304.798 127.627L352.903 175.731C356.226 179.055 356.219 184.436 352.903 187.752L347.055 193.6C344.58 196.075 340.465 195.735 338.435 192.886L335.925 189.371C334.143 186.882 330.24 188.579 330.841 191.57L333.288 203.803C333.662 205.663 333.076 207.579 331.732 208.923L314.825 225.83C311.502 229.153 306.121 229.146 302.804 225.83L254.7 177.725C251.376 174.402 251.384 169.021 254.7 165.704L262.28 158.124C264.755 155.649 268.87 155.989 270.9 158.838L290.119 185.737C291.894 188.219 295.804 186.529 295.203 183.538L286.074 137.894C285.699 136.034 286.286 134.118 287.63 132.774L292.778 127.627C296.101 124.303 301.482 124.31 304.798 127.627Z" fill="#006146"/>
<path d="M115.697 303.845L80.0166 339.525C78.0579 341.484 77.8034 344.581 79.4156 346.83L122.839 407.634C124.875 410.491 128.984 410.823 131.459 408.348L136.691 403.115C138.035 401.772 138.622 399.856 138.247 397.996L130.575 359.635C129.981 356.637 133.884 354.94 135.666 357.429L151.243 379.229C153.28 382.086 157.388 382.418 159.863 379.944L175.83 363.977C179.153 360.654 179.16 355.273 175.837 351.949L127.732 303.845C124.409 300.521 119.021 300.521 115.697 303.845ZM128.354 335.707L130.037 344.178C130.801 347.954 125.88 350.09 123.624 346.957L118.611 339.921C116.645 337.164 117.649 333.303 120.718 331.86C122.889 330.835 125.328 331.394 126.877 332.942C127.605 333.671 128.128 334.604 128.354 335.707Z" fill="#006146"/>
<path d="M317.795 40.3692L327.496 50.5233C328.019 51.0748 328.019 51.9658 327.496 52.5173L308.206 72.6981C307.923 72.981 308.129 73.4972 308.524 73.4972L335.805 73.4972C336.54 73.4972 337.141 74.1265 337.141 74.9043L337.148 83.2552V89.2656C337.141 89.6687 336.986 90.0222 336.724 90.2839C336.483 90.5243 336.165 90.6728 335.798 90.6728L239.476 90.6728C238.726 90.6728 238.125 90.0435 238.125 89.2656L238.132 74.9043C238.132 74.5083 238.288 74.1406 238.542 73.8861C238.783 73.6456 239.115 73.4972 239.468 73.4972L266.749 73.4972C266.869 73.5042 266.975 73.4547 267.053 73.3769C267.222 73.2072 267.258 72.9032 267.067 72.6981L247.777 52.5173C247.254 51.9658 247.254 51.0748 247.777 50.5233L248.463 49.8091L257.478 40.3692L257.5 40.348C258.03 39.8177 258.864 39.8318 259.381 40.3763L278.663 60.55C278.854 60.7551 279.13 60.7197 279.293 60.5571C279.378 60.4722 279.434 60.3591 279.427 60.2248L279.434 31.6789C279.434 31.2829 279.59 30.9152 279.844 30.6606C280.085 30.4202 280.417 30.2717 280.778 30.2788L294.495 30.2788C295.238 30.2717 295.846 30.9081 295.839 31.6789L295.846 60.2248C295.846 60.6349 296.313 60.847 296.596 60.5642L296.61 60.55L315.893 40.3763L315.914 40.3551C316.444 39.8247 317.271 39.8318 317.795 40.3692Z" fill="#006146"/>
<path d="M317.795 40.3692L327.496 50.5233C328.019 51.0748 328.019 51.9658 327.496 52.5173L308.206 72.6981C307.923 72.981 308.129 73.4972 308.524 73.4972L335.805 73.4972C336.54 73.4972 337.141 74.1265 337.141 74.9043L337.148 83.2552V89.2656C337.141 89.6687 336.986 90.0222 336.724 90.2839C336.483 90.5243 336.165 90.6728 335.798 90.6728L239.476 90.6728C238.726 90.6728 238.125 90.0435 238.125 89.2656L238.132 74.9043C238.132 74.5083 238.288 74.1406 238.542 73.8861C238.783 73.6456 239.115 73.4972 239.468 73.4972L266.749 73.4972C266.869 73.5042 266.975 73.4547 267.053 73.3769C267.222 73.2072 267.258 72.9032 267.067 72.6981L247.777 52.5173C247.254 51.9658 247.254 51.0748 247.777 50.5233L248.463 49.8091L257.478 40.3692L257.5 40.348C258.03 39.8177 258.864 39.8318 259.381 40.3763L278.663 60.55C278.854 60.7551 279.13 60.7197 279.293 60.5571C279.378 60.4722 279.434 60.3591 279.427 60.2248L279.434 31.6789C279.434 31.2829 279.59 30.9152 279.844 30.6606C280.085 30.4202 280.417 30.2717 280.778 30.2788L294.495 30.2788C295.238 30.2717 295.846 30.9081 295.839 31.6789L295.846 60.2248C295.846 60.6349 296.313 60.847 296.596 60.5642L296.61 60.55L315.893 40.3763L315.914 40.3551C316.444 39.8247 317.271 39.8318 317.795 40.3692Z" fill="#006146"/>
</g>
<defs>
<clipPath id="clip0_750_423">
<rect width="402.92" height="182.78" fill="white" transform="translate(0 284.908) rotate(-45)"/>
</clipPath>
</defs>
</svg>
