<svg width="91" height="109" viewBox="0 0 91 109" fill="none" xmlns="http://www.w3.org/2000/svg">
<g filter="url(#filter0_ii_584_698)">
<path fill-rule="evenodd" clip-rule="evenodd" d="M57.8652 12.432C60.4416 9.85606 64.6181 9.85595 67.1944 12.432C69.7707 15.0083 69.7704 19.1847 67.1944 21.7612L58.2915 30.6641C57.5105 31.4451 57.5105 32.7114 58.2915 33.4925L66.1095 41.3105C66.8905 42.0915 68.1569 42.0915 68.9379 41.3105L77.8408 32.4076C80.4172 29.8317 84.5937 29.8315 87.17 32.4076C89.7463 34.9839 89.746 39.1603 87.17 41.7368L78.2671 50.6397C77.4861 51.4207 77.4861 52.687 78.2671 53.4681L87.17 62.371C89.7463 64.9473 89.746 69.1237 87.17 71.7002C84.5935 74.2766 80.4173 74.2766 77.8408 71.7002L76.4288 70.2881C75.6477 69.5071 74.3814 69.5071 73.6003 70.2881L61.5763 82.3122C57.5294 86.3587 52.0411 88.6333 46.3183 88.6333C40.5956 88.6332 35.107 86.3586 31.0602 82.3122L30.2554 81.5063C29.4744 80.7243 28.2073 80.724 27.4259 81.5055L12.2615 96.6725C9.68536 99.2477 5.5086 99.2476 2.93235 96.6725C0.355885 94.096 0.355884 89.9169 2.93235 87.3404L18.1039 72.1675C18.8848 71.3867 18.8849 70.1207 18.1043 69.3396L17.2855 68.5203C13.2475 64.4746 10.9787 58.9898 10.9787 53.2737C10.979 47.5579 13.2475 42.0754 17.2855 38.03L29.3139 26.0016C30.0949 25.2206 30.0949 23.9543 29.3139 23.1732L27.9018 21.7612C25.3256 19.1847 25.3255 15.0084 27.9018 12.432C30.4782 9.85606 34.6547 9.85595 37.231 12.432L46.1339 21.3349C46.915 22.1159 48.1813 22.1159 48.9623 21.3349L57.8652 12.432Z" fill="#C1A67E"/>
</g>
<path fill-rule="evenodd" clip-rule="evenodd" d="M57.8652 12.432C60.4416 9.85606 64.6181 9.85595 67.1944 12.432C69.7707 15.0083 69.7704 19.1847 67.1944 21.7612L58.2915 30.6641C57.5105 31.4451 57.5105 32.7114 58.2915 33.4925L66.1095 41.3105C66.8905 42.0915 68.1569 42.0915 68.9379 41.3105L77.8408 32.4076C80.4172 29.8317 84.5937 29.8315 87.17 32.4076C89.7463 34.9839 89.746 39.1603 87.17 41.7368L78.2671 50.6397C77.4861 51.4207 77.4861 52.687 78.2671 53.4681L87.17 62.371C89.7463 64.9473 89.746 69.1237 87.17 71.7002C84.5935 74.2766 80.4173 74.2766 77.8408 71.7002L76.4288 70.2881C75.6477 69.5071 74.3814 69.5071 73.6003 70.2881L61.5763 82.3122C57.5294 86.3587 52.0411 88.6333 46.3183 88.6333C40.5956 88.6332 35.107 86.3586 31.0602 82.3122L30.2554 81.5063C29.4744 80.7243 28.2073 80.724 27.4259 81.5055L12.2615 96.6725C9.68536 99.2477 5.5086 99.2476 2.93235 96.6725C0.355885 94.096 0.355884 89.9169 2.93235 87.3404L18.1039 72.1675C18.8848 71.3867 18.8849 70.1207 18.1043 69.3396L17.2855 68.5203C13.2475 64.4746 10.9787 58.9898 10.9787 53.2737C10.979 47.5579 13.2475 42.0754 17.2855 38.03L29.3139 26.0016C30.0949 25.2206 30.0949 23.9543 29.3139 23.1732L27.9018 21.7612C25.3256 19.1847 25.3255 15.0084 27.9018 12.432C30.4782 9.85606 34.6547 9.85595 37.231 12.432L46.1339 21.3349C46.915 22.1159 48.1813 22.1159 48.9623 21.3349L57.8652 12.432Z" stroke="#804600" stroke-width="2" stroke-linecap="round" stroke-linejoin="round"/>
<defs>
<filter id="filter0_ii_584_698" x="0" y="9.5" width="90.1021" height="94.1035" filterUnits="userSpaceOnUse" color-interpolation-filters="sRGB">
<feFlood flood-opacity="0" result="BackgroundImageFix"/>
<feBlend mode="normal" in="SourceGraphic" in2="BackgroundImageFix" result="shape"/>
<feColorMatrix in="SourceAlpha" type="matrix" values="0 0 0 0 0 0 0 0 0 0 0 0 0 0 0 0 0 0 127 0" result="hardAlpha"/>
<feOffset dy="4"/>
<feGaussianBlur stdDeviation="2"/>
<feComposite in2="hardAlpha" operator="arithmetic" k2="-1" k3="1"/>
<feColorMatrix type="matrix" values="0 0 0 0 0 0 0 0 0 0 0 0 0 0 0 0 0 0 0.25 0"/>
<feBlend mode="normal" in2="shape" result="effect1_innerShadow_584_698"/>
<feColorMatrix in="SourceAlpha" type="matrix" values="0 0 0 0 0 0 0 0 0 0 0 0 0 0 0 0 0 0 127 0" result="hardAlpha"/>
<feOffset dy="6"/>
<feComposite in2="hardAlpha" operator="arithmetic" k2="-1" k3="1"/>
<feColorMatrix type="matrix" values="0 0 0 0 0.501961 0 0 0 0 0.27451 0 0 0 0 0 0 0 0 1 0"/>
<feBlend mode="normal" in2="effect1_innerShadow_584_698" result="effect2_innerShadow_584_698"/>
</filter>
</defs>
</svg>
