<svg width="25" height="25" viewBox="0 0 25 25" fill="none" xmlns="http://www.w3.org/2000/svg">
<path fill-rule="evenodd" clip-rule="evenodd" d="M16.0961 0.546864C16.8254 -0.182271 18.0076 -0.182304 18.7368 0.546864C19.4661 1.27611 19.466 2.45827 18.7368 3.18756L16.2168 5.70759C15.9957 5.92867 15.9957 6.28712 16.2168 6.5082L18.4297 8.72113C18.6508 8.94222 19.0093 8.94222 19.2303 8.72113L21.7504 6.20111C22.4796 5.47197 23.6618 5.47194 24.3911 6.20111C25.1203 6.93035 25.1202 8.11251 24.3911 8.84181L21.871 11.3618C21.65 11.5829 21.65 11.9414 21.871 12.1624L24.3911 14.6825C25.1203 15.4117 25.1202 16.5939 24.3911 17.3232C23.6618 18.0525 22.4797 18.0525 21.7504 17.3232L21.3507 16.9235C21.1296 16.7024 20.7712 16.7024 20.5501 16.9235L17.1466 20.327C16.0011 21.4724 14.4476 22.1162 12.8277 22.1162C11.2078 22.1162 9.65423 21.4724 8.50878 20.327L8.28096 20.0989C8.05991 19.8775 7.70124 19.8774 7.48006 20.0986L3.18766 24.3918C2.45846 25.1207 1.27619 25.1207 0.546965 24.3918C-0.182322 23.6625 -0.182322 22.4796 0.546965 21.7503L4.8414 17.4555C5.06242 17.2344 5.06247 16.8761 4.84151 16.655L4.60974 16.4231C3.46675 15.2779 2.82455 13.7254 2.82455 12.1074C2.82464 10.4895 3.46675 8.93767 4.60974 7.79258L8.01445 4.38786C8.23554 4.16678 8.23554 3.80833 8.01445 3.58725L7.61477 3.18756C6.88556 2.45827 6.88551 1.27613 7.61477 0.546864C8.34404 -0.182272 9.52622 -0.182304 10.2555 0.546864L12.7755 3.06689C12.9966 3.28797 13.355 3.28797 13.5761 3.06689L16.0961 0.546864Z" fill="#FFFCF7"/>
</svg>
